<svg viewBox="1 1 511.99998 511.99998" xmlns="http://www.w3.org/2000/svg"><path d="m512 256c0 141.386719-114.613281 256-256 256s-256-114.613281-256-256 114.613281-256 256-256 256 114.613281 256 256zm0 0" fill="#583377"/><path d="m481.175781 89.328125v286.40625h-450.363281v-286.40625c0-27.910156 22.625-50.542969 50.53125-50.542969h349.300781c27.910157 0 50.53125 22.632813 50.53125 50.542969zm0 0" fill="#ededed"/><path d="m30.8125 326.648438h450.359375v49.085937h-450.359375zm0 0" fill="#d6d6d6"/><path d="m51.703125 291.3125v-206.738281c0-13.742188 11.140625-24.886719 24.886719-24.886719h358.804687c13.742188 0 24.886719 11.144531 24.886719 24.886719v206.738281c0 13.742188-11.144531 24.886719-24.886719 24.886719h-358.804687c-13.746094 0-24.886719-11.140625-24.886719-24.886719zm0 0" fill="#475866"/><path d="m493.679688 345.976562c0 1.921876-.0625 3.847657-.175782 5.738282-11.421875 28.304687-27.753906 54.113281-47.953125 76.339844-13.570312 7.617187-29.234375 11.953124-45.902343 11.953124h-287.304688c-16.675781 0-32.328125-4.335937-45.902344-11.945312-20.199218-22.234375-36.539062-48.054688-47.960937-76.378906-.125-1.882813-.175781-3.792969-.175781-5.707032zm0 0" fill="#ededed"/><path d="m493.683594 345.976562c0 1.921876-.0625 3.84375-.179688 5.734376v.011718c-11.417968 28.308594-27.75 54.105469-47.949218 76.332032l-.011719.007812c-13.570313 7.609375-29.222657 11.945312-45.890625 11.945312h-287.136719c-16.8125 0-32.601563-4.410156-46.257813-12.152343-19.988281-22.058594-36.195312-47.628907-47.566406-75.664063-.132812-2.046875-.207031-4.125-.207031-6.214844h2.832031c10.238282 40.835938 47.1875 71.0625 91.199219 71.0625h287.136719c25.964844 0 49.476562-10.523437 66.488281-27.542968 11.828125-11.816406 20.511719-26.78125 24.710937-43.519532zm0 0" fill="#d6d6d6"/><path d="m346.109375 345.976562v7.503907c0 15.179687-12.308594 27.5-27.503906 27.5h-125.230469c-15.191406 0-27.5-12.320313-27.5-27.5v-7.503907zm0 0" fill="#d6d6d6"/><path d="m426.855469 177.722656 40.972656-35.402344c6.9375-5.996093 2.273437-17.375-6.878906-16.773437l-53.585938 3.527344c-6.253906.414062-11.203125-5.203125-10.015625-11.355469l11.167969-57.726562c1.625-8.402344-7.765625-14.542969-14.8125-9.6875l-47.695313 32.886718c-5.5 3.792969-13.097656.914063-14.707031-5.574218l-14.332031-57.886719c-1.996094-8.054688-12.601562-9.917969-17.222656-3.023438l-33.039063 49.304688c-3.789062 5.648437-12.097656 5.648437-15.882812 0l-33.039063-49.304688c-4.617187-6.894531-15.226562-5.03125-17.21875 3.023438l-14.335937 57.886719c-1.609375 6.488281-9.203125 9.367187-14.707031 5.574218l-47.699219-32.886718c-7.046875-4.855469-16.4375 1.285156-14.808594 9.6875l11.167969 57.730468c1.1875 6.148438-3.761719 11.765625-10.015625 11.355469l-53.585938-3.527344c-9.152343-.601562-13.820312 10.777344-6.878906 16.773438l40.972656 35.398437c4.410157 3.8125 4.410157 10.65625 0 14.46875l-40.972656 35.402344c-6.941406 5.996094-2.273437 17.375 6.878906 16.769531l53.585938-3.523437c6.253906-.414063 11.203125 5.203125 10.015625 11.355468l-11.167969 57.726563c-1.625 8.402344 7.765625 14.542969 14.8125 9.683594l47.695313-32.882813c5.5-3.792968 13.097656-.914062 14.703124 5.574219l14.335938 57.886719c1.996094 8.054687 12.601562 9.917968 17.222656 3.023437l33.039063-49.304687c3.789062-5.648438 12.097656-5.648438 15.882812 0l33.039063 49.304687c4.617187 6.894531 15.226562 5.03125 17.21875-3.023437l14.335937-57.886719c1.605469-6.488281 9.203125-9.367187 14.707031-5.574219l47.695313 32.882813c7.046875 4.859375 16.4375-1.28125 14.8125-9.683594l-11.167969-57.730469c-1.1875-6.148437 3.761719-11.765625 10.015625-11.355468l53.585938 3.527343c9.152343.601563 13.816406-10.777343 6.878906-16.773437l-40.972656-35.398438c-4.414063-3.8125-4.414063-10.65625 0-14.46875zm0 0" fill="#fcda42"/><path d="m99.914062 295.300781c-15.085937 0-27.3125-12.230469-27.3125-27.316406v-160.082031c0-15.085938 12.230469-27.316406 27.316407-27.316406h312.148437c15.085938 0 27.316406 12.230468 27.316406 27.3125v160.085937c0 15.085937-12.230468 27.316406-27.316406 27.316406zm0 0" fill="#ff4f9b"/><path d="m93.5 101.484375h324.984375v172.917969h-324.984375zm0 0" fill="#583377"/><g fill="#fff"><path d="m125.558594 229.394531c0-.417969.136718-.96875.273437-1.523437l25.742188-84.421875c1.523437-4.84375 7.75-7.195313 14.117187-7.195313 6.367188 0 12.59375 2.351563 14.117188 7.195313l25.878906 84.421875c.136719.554687.277344 1.105468.277344 1.523437 0 5.117188-7.890625 8.855469-13.839844 8.855469-3.460938 0-6.226562-1.105469-7.058594-4.011719l-4.703125-17.300781h-29.203125l-4.703125 17.300781c-.832031 2.90625-3.597656 4.011719-7.058593 4.011719-5.953126 0-13.839844-3.738281-13.839844-8.855469zm50.234375-29.066406-10.101563-37.089844-10.105468 37.089844zm0 0"/><path d="m261.734375 137.085938c19.097656 0 34.042969 8.855468 34.042969 32.660156v35.84375c0 23.804687-14.945313 32.660156-34.042969 32.660156h-24.496094c-5.671875 0-9.410156-3.046875-9.410156-6.503906v-88.15625c0-3.460938 3.738281-6.503906 9.410156-6.503906zm-12.316406 18.820312v63.519531h12.316406c7.75 0 12.453125-4.425781 12.453125-13.839843v-35.84375c0-9.410157-4.703125-13.839844-12.453125-13.839844h-12.316406zm0 0"/><path d="m364.835938 211.125c0-16.746094-43.871094-13.839844-43.871094-46.222656 0-20.757813 18.128906-28.648438 35.429687-28.648438 7.335938 0 27.539063 1.382813 27.539063 12.179688 0 3.734375-2.492188 11.347656-8.582032 11.347656-4.980468 0-7.609374-5.261719-18.957031-5.261719-9.828125 0-13.839843 4.015625-13.839843 8.304688 0 13.839843 43.871093 11.210937 43.871093 46.085937 0 19.925782-14.53125 30.722656-34.597656 30.722656-18.132813 0-33.355469-8.859374-33.355469-17.992187 0-4.707031 4.152344-11.625 9.414063-11.625 6.503906 0 10.652343 10.242187 23.523437 10.242187 6.371094 0 13.425782-2.492187 13.425782-9.132812zm0 0"/></g></svg>