<svg height="465pt" viewBox="-61 0 465 465.4" width="465pt" xmlns="http://www.w3.org/2000/svg"><path d="m343.679688 105.101562v325.128907c-.003907 19.421875-15.746094 35.167969-35.167969 35.167969h-273.140625c-19.421875 0-35.167969-15.746094-35.171875-35.167969v-395.058594c.003906-19.425781 15.75-35.16796875 35.171875-35.171875h206.289062l.070313.078125-.070313.070313v85.839843c-.003906 10.554688 8.546875 19.113281 19.101563 19.113281zm0 0" fill="#00acea"/><path d="m241.730469.078125 101.949219 105.023437h-82.917969c-10.554688 0-19.105469-8.558593-19.101563-19.113281v-85.839843zm0 0" fill="#00efd1"/><path d="m241.148438 268.199219v31.171875h-138.417969v-31.171875c-.003907-18.144531 14.703125-32.855469 32.847656-32.859375h16.683594v.621094c0 10.800781 8.753906 19.558593 19.558593 19.558593 10.800782 0 19.558594-8.757812 19.558594-19.558593v-.621094h16.921875c18.144531.003906 32.851563 14.714844 32.847657 32.859375zm0 0" fill="#00efd1"/><path d="m224.988281 144.96875c5.410157 13.410156 4.773438 28-.777343 41.242188-4.640626 11.078124-12.082032 20.867187-20.539063 29.308593-3.8125 3.882813-7.921875 7.460938-12.292969 10.699219v-7.648438c12.207032-7.179687 19.699219-20.289062 19.691406-34.449218v-16.101563l.058594-3.800781c.195313-9.09375-4.234375-17.667969-11.769531-22.769531-2.980469-2.019531-6.378906-3.335938-9.9375-3.859375-19.460937 35.621094-54.433594 39.039062-55.800781 39.160156h-.082032c-.535156 0-.96875.433594-.96875.96875v6.902344c-.003906 14.050781 7.503907 27.035156 19.691407 34.039062v5.738282c-22.023438-11.269532-36.042969-35.1875-37.0625-59.726563-.414063-9.433594 1.554687-18.820313 5.722656-27.292969 7.296875-14.640625 20.976563-25.160156 36.578125-29.667968 9.585938-2.921876 19.925781-2.050782 28.890625 2.429687 8.484375 4.417969 15.117187 11.707031 18.71875 20.570313l.28125.820312c9.558594-2.269531 16.398437 5.527344 19.597656 13.4375zm0 0" fill="#4b5d63"/><path d="m152.261719 218.660156c-12.1875-7.003906-19.695313-19.988281-19.691407-34.039062v-6.902344c0-.535156.433594-.96875.96875-.96875h.082032c1.367187-.121094 36.339844-3.539062 55.800781-39.160156 3.558594.523437 6.957031 1.839844 9.9375 3.859375 7.535156 5.101562 11.964844 13.675781 11.769531 22.769531l-.058594 3.800781v16.101563c.007813 14.160156-7.484374 27.269531-19.691406 34.449218-5.839844 3.429688-12.484375 5.257813-19.257812 5.300782-6.964844.058594-13.824219-1.738282-19.859375-5.210938zm0 0" fill="#f7caa5"/><path d="m191.378906 235.339844v.621094c0 10.800781-8.757812 19.558593-19.558594 19.558593-10.804687 0-19.558593-8.757812-19.558593-19.558593v-17.300782c6.035156 3.472656 12.894531 5.269532 19.859375 5.210938 6.773437-.042969 13.417968-1.871094 19.257812-5.300782zm0 0" fill="#edb288"/><g fill="#fedb41"><path d="m278.949219 388.699219h-219.910157c-3.3125 0-6 2.6875-6 6 0 3.316406 2.6875 6 6 6h219.910157c3.316406 0 6-2.683594 6-6 0-3.3125-2.683594-6-6-6zm0 0"/><path d="m59.039062 349.699219h131.660157c3.316406 0 6-2.683594 6-6 0-3.3125-2.683594-6-6-6h-131.660157c-3.3125 0-6 2.6875-6 6 0 3.316406 2.6875 6 6 6zm0 0"/></g></svg>