<svg viewBox="1 1 511.99998 511.99998" xmlns="http://www.w3.org/2000/svg"><path d="m512 256c0 51.429688-15.171875 99.339844-41.285156 139.453125-45.660156 70.164063-124.769532 116.546875-214.714844 116.546875s-169.054688-46.382812-214.714844-116.546875c-26.113281-40.113281-41.285156-88.023437-41.285156-139.453125s15.171875-99.339844 41.285156-139.453125c45.660156-70.164063 124.769532-116.546875 214.714844-116.546875s169.054688 46.382812 214.714844 116.546875c26.113281 40.113281 41.285156 88.023437 41.285156 139.453125zm0 0" fill="#475866"/><path d="m470.714844 34.136719v361.316406c-6.339844 9.738281-13.320313 19.027344-20.898438 27.792969-46.945312 54.355468-116.359375 88.753906-193.816406 88.753906s-146.871094-34.398438-193.816406-88.753906c-7.578125-8.765625-14.558594-18.054688-20.898438-27.792969v-361.316406c0-18.851563 15.285156-34.136719 34.136719-34.136719h361.15625c18.851563 0 34.136719 15.285156 34.136719 34.136719zm0 0" fill="#ededed"/><path d="m449.816406 34.136719v389.109375c-6.539062 7.574218-13.519531 14.765625-20.894531 21.523437-45.558594 41.753907-106.257813 67.230469-172.921875 67.230469-18.453125 0-36.457031-1.953125-53.800781-5.671875-7.449219-1.578125-14.765625-3.503906-21.953125-5.726563-36.574219-11.308593-69.632813-30.597656-97.167969-55.832031-7.375-6.757812-14.355469-13.949219-20.894531-21.523437v-389.109375c0-7.304688 5.933594-13.238281 13.238281-13.238281h361.15625c7.304687 0 13.238281 5.933593 13.238281 13.238281zm0 0" fill="#fff"/><path d="m449.816406 34.136719v55.851562h-387.632812v-55.851562c0-7.304688 5.933594-13.238281 13.238281-13.238281h361.15625c7.304687 0 13.238281 5.933593 13.238281 13.238281zm0 0" fill="#583377"/><path d="m115.984375 55.441406c0 10.003906-8.109375 18.113282-18.113281 18.113282-10 0-18.109375-8.109376-18.109375-18.113282 0-10 8.109375-18.109375 18.109375-18.109375 10.003906 0 18.113281 8.109375 18.113281 18.109375zm0 0" fill="#fff"/><path d="m162.109375 55.441406c0 10.003906-8.109375 18.113282-18.109375 18.113282-10.003906 0-18.113281-8.109376-18.113281-18.113282 0-10 8.109375-18.109375 18.113281-18.109375 10 0 18.109375 8.109375 18.109375 18.109375zm0 0" fill="#fff"/><path d="m208.238281 55.441406c0 10.003906-8.109375 18.113282-18.113281 18.113282s-18.109375-8.109376-18.109375-18.113282c0-10 8.105469-18.109375 18.109375-18.109375s18.113281 8.109375 18.113281 18.109375zm0 0" fill="#fff"/><path d="m83.078125 109.714844h345.84375v80.738281h-345.84375zm0 0" fill="#ff4f9b"/><path d="m180.246094 210.179688v290.421874c-5.289063-1.632812-10.511719-3.4375-15.652344-5.414062-.878906-.335938-1.757812-.679688-2.632812-1.023438-4.746094-1.871093-9.417969-3.878906-14.015626-6.03125-5.503906-2.558593-10.898437-5.304687-16.171874-8.242187-2.9375-1.628906-5.832032-3.324219-8.695313-5.066406-4.09375-2.488281-8.128906-5.101563-12.066406-7.816407-3.417969-2.351562-6.78125-4.785156-10.074219-7.304687-.910156-.691406-1.820312-1.390625-2.71875-2.101563-5.210938-4.074218-10.257812-8.359374-15.140625-12.832031v-234.589843zm0 0" fill="#5a9ed1"/><path d="m428.921875 210.179688v157.761718l-226.722656-.816406v-156.945312zm0 0" fill="#ededed"/><path d="m418.472656 220.628906v136.820313l-163.214844-.585938-42.609374-.144531v-136.089844zm0 0" fill="#fff"/><path d="m428.921875 387.667969v57.101562c-8.558594 7.839844-17.640625 15.109375-27.199219 21.746094-7.640625 5.289063-15.570312 10.175781-23.78125 14.628906-8.871094 4.828125-18.066406 9.132813-27.546875 12.882813-11.230469 4.460937-22.839843 8.152344-34.78125 10.992187-5.96875 1.421875-12.019531 2.644531-18.152343 3.636719-13.5 2.203125-27.34375 3.34375-41.460938 3.34375-14.105469 0-27.941406-1.140625-41.417969-3.34375-.648437-.105469-1.285156-.207031-1.933593-.324219-3.511719-.59375-6.992188-1.265625-10.449219-2.003906v-119.476563zm0 0" fill="#ededed"/><g fill="#384361"><path d="m98.730469 232.25h65.863281v15.113281h-65.863281zm0 0"/><path d="m98.730469 260.679688h65.863281v15.117187h-65.863281zm0 0"/><path d="m98.730469 289.113281h65.863281v15.113281h-65.863281zm0 0"/><path d="m98.730469 317.542969h65.863281v15.117187h-65.863281zm0 0"/><path d="m98.730469 345.972656h65.863281v15.117188h-65.863281zm0 0"/><path d="m98.730469 374.40625h65.863281v15.113281h-65.863281zm0 0"/><path d="m98.730469 402.835938h65.863281v15.117187h-65.863281zm0 0"/><path d="m98.730469 431.269531h65.863281v15.113281h-65.863281zm0 0"/><path d="m164.59375 459.703125v15.121094h-41.515625c-4.09375-2.488281-8.128906-5.101563-12.066406-7.816407-3.417969-2.351562-6.78125-4.785156-10.074219-7.304687zm0 0"/><path d="m212.648438 411.480469h205.824218v14.628906h-205.824218zm0 0"/><path d="m212.648438 438.996094h205.824218v14.628906h-205.824218zm0 0"/><path d="m401.722656 466.515625c-7.640625 5.289063-15.570312 10.175781-23.78125 14.628906h-165.292968v-14.628906zm0 0"/><path d="m350.394531 494.027344c-11.230469 4.460937-22.839843 8.152344-34.78125 10.992187-6.730469 1.421875-13.566406 2.644531-20.480469 3.636719h-82.484374v-14.628906zm0 0"/></g><path d="m418.472656 252.980469v104.46875l-163.214844-.585938-42.609374-.144531v-37.410156l66.632812-47.730469 58.710938 39.019531 70.519531-66.113281zm0 0" fill="#f4a441"/><path d="m269.785156 249.835938c0 12.824218-10.394531 23.21875-23.21875 23.21875-12.824218 0-23.222656-10.394532-23.222656-23.21875 0-12.824219 10.398438-23.222657 23.222656-23.222657 12.824219 0 23.21875 10.398438 23.21875 23.222657zm0 0" fill="#fcda42"/><path d="m408.515625 244.484375-70.519531 66.113281 58.582031 38.929688zm0 0" fill="#fcda42"/><path d="m279.28125 271.578125-24.023438 85.285156-42.609374-.144531v-37.410156zm0 0" fill="#fcda42"/></svg>