<?xml version="1.0" encoding="utf-8"?>
<svg xmlns="http://www.w3.org/2000/svg" xmlns:xlink="http://www.w3.org/1999/xlink" version="1.1" style="width:0;height:0;position:absolute;overflow:hidden;">
  <defs>
<symbol xmlns="http://www.w3.org/2000/svg" id="si-logos-css-3" aria-labelledby="ahosi-logos-css-3-title" viewBox="0 0 256 361" preserveAspectRatio="xMidYMid meet"><title id="ahosi-logos-css-3-title">logo of css-3</title><path fill="#264de4" d="M 127.844 360.088 L 23.662 331.166 L 0.445 70.766 h 255.11 l -23.241 260.36 l -104.47 28.962 Z" /><path fill="#2965f1" d="M 212.417 314.547 l 19.86 -222.49 H 128 V 337.95 l 84.417 -23.403 Z" /><path fill="#ebebeb" d="M 53.669 188.636 l 2.862 31.937 H 128 v -31.937 H 53.669 Z M 47.917 123.995 l 2.903 31.937 H 128 v -31.937 H 47.917 Z M 128 271.58 l -0.14 0.037 l -35.568 -9.604 l -2.274 -25.471 h -32.06 l 4.474 50.146 l 65.421 18.16 l 0.147 -0.04 V 271.58 Z" /><path d="M 60.484 0 h 38.68 v 16.176 H 76.66 v 16.176 h 22.506 v 16.175 H 60.484 V 0 Z M 106.901 0 h 38.681 v 14.066 h -22.505 v 2.813 h 22.505 v 32.352 h -38.68 V 34.46 h 22.505 v -2.813 H 106.9 V 0 Z M 153.319 0 H 192 v 14.066 h -22.505 v 2.813 H 192 v 32.352 h -38.681 V 34.46 h 22.505 v -2.813 H 153.32 V 0 Z" /><path fill="#fff" d="M 202.127 188.636 l 5.765 -64.641 H 127.89 v 31.937 h 45.002 l -2.906 32.704 H 127.89 v 31.937 h 39.327 l -3.708 41.42 l -35.62 9.614 v 33.226 l 65.473 -18.145 l 0.48 -5.396 l 7.506 -84.08 l 0.779 -8.576 Z" /></symbol>
<symbol xmlns="http://www.w3.org/2000/svg" id="si-logos-html-5" aria-labelledby="aoksi-logos-html-5-title" viewBox="0 0 256 361" preserveAspectRatio="xMidYMid meet"><title id="aoksi-logos-html-5-title">logo of html-5</title><path fill="#e44d26" d="M 255.555 70.766 l -23.241 260.36 l -104.47 28.962 l -104.182 -28.922 L 0.445 70.766 h 255.11 Z" /><path fill="#f16529" d="M 128 337.95 l 84.417 -23.403 l 19.86 -222.49 H 128 V 337.95 Z" /><path fill="#ebebeb" d="M 82.82 155.932 H 128 v -31.937 H 47.917 l 0.764 8.568 l 7.85 88.01 H 128 v -31.937 H 85.739 l -2.919 -32.704 Z M 90.018 236.542 h -32.06 l 4.474 50.146 l 65.421 18.16 l 0.147 -0.04 V 271.58 l -0.14 0.037 l -35.568 -9.604 l -2.274 -25.471 Z" /><path d="M 24.18 0 h 16.23 v 16.035 h 14.847 V 0 h 16.231 v 48.558 h -16.23 v -16.26 H 40.411 v 16.26 h -16.23 V 0 Z M 92.83 16.103 H 78.544 V 0 h 44.814 v 16.103 h -14.295 v 32.455 h -16.23 V 16.103 h -0.001 Z M 130.47 0 h 16.923 l 10.41 17.062 L 168.203 0 h 16.93 v 48.558 h -16.164 V 24.49 l -11.166 17.265 h -0.28 L 146.35 24.49 v 24.068 h -15.88 V 0 Z M 193.21 0 h 16.235 v 32.508 h 22.824 v 16.05 h -39.06 V 0 Z" /><path fill="#fff" d="M 127.89 220.573 h 39.327 l -3.708 41.42 l -35.62 9.614 v 33.226 l 65.473 -18.145 l 0.48 -5.396 l 7.506 -84.08 l 0.779 -8.576 H 127.89 v 31.937 Z M 127.89 155.854 v 0.078 h 77.143 l 0.64 -7.178 l 1.456 -16.191 l 0.763 -8.568 H 127.89 v 31.86 Z" /></symbol>
<symbol xmlns="http://www.w3.org/2000/svg" id="si-logos-javascript" aria-labelledby="apksi-logos-javascript-title" viewBox="0 0 256 256" preserveAspectRatio="xMidYMid meet"><title id="apksi-logos-javascript-title">logo of javascript</title><path fill="#f7df1e" d="M 0 0 h 256 v 256 H 0 V 0 Z" /><path d="M 67.312 213.932 l 19.59 -11.856 c 3.78 6.701 7.218 12.371 15.465 12.371 c 7.905 0 12.89 -3.092 12.89 -15.12 v -81.798 h 24.057 v 82.138 c 0 24.917 -14.606 36.259 -35.916 36.259 c -19.245 0 -30.416 -9.967 -36.087 -21.996 M 152.381 211.354 l 19.588 -11.341 c 5.157 8.421 11.859 14.607 23.715 14.607 c 9.969 0 16.325 -4.984 16.325 -11.858 c 0 -8.248 -6.53 -11.17 -17.528 -15.98 l -6.013 -2.58 c -17.357 -7.387 -28.87 -16.667 -28.87 -36.257 c 0 -18.044 13.747 -31.792 35.228 -31.792 c 15.294 0 26.292 5.328 34.196 19.247 L 210.29 147.43 c -4.125 -7.389 -8.591 -10.31 -15.465 -10.31 c -7.046 0 -11.514 4.468 -11.514 10.31 c 0 7.217 4.468 10.14 14.778 14.608 l 6.014 2.577 c 20.45 8.765 31.963 17.7 31.963 37.804 c 0 21.654 -17.012 33.51 -39.867 33.51 c -22.339 0 -36.774 -10.654 -43.819 -24.574" /></symbol>
<symbol xmlns="http://www.w3.org/2000/svg" id="si-logos-mongodb" aria-labelledby="auesi-logos-mongodb-title" viewBox="0 0 512 146"><title id="auesi-logos-mongodb-title">logo of mongodb</title><g fill="none" fill-rule="evenodd"><path fill="#8e714e" d="M 476.713 60.463 c -0.46 0.092 -0.922 1.107 -0.922 1.66 c -0.092 3.692 -0.184 13.474 -0.184 20.118 c 0 0.185 0.276 0.554 0.553 0.554 c 1.384 0.092 4.706 0.184 7.567 0.184 c 3.968 0 6.275 -0.553 7.568 -1.106 c 3.321 -1.662 4.89 -5.261 4.89 -9.23 c 0 -8.95 -6.275 -12.365 -15.596 -12.365 c -0.646 -0.092 -2.49 -0.092 -3.876 0.185 Z m 23.81 41.25 c 0 -9.136 -6.737 -14.212 -18.918 -14.212 c -0.554 0 -4.43 -0.092 -5.353 0.092 c -0.277 0.093 -0.645 0.278 -0.645 0.555 c 0 6.551 -0.093 16.98 0.184 21.04 c 0.184 1.753 1.477 4.245 3.046 4.983 c 1.66 0.923 5.444 1.107 8.028 1.107 c 7.29 0 13.658 -4.06 13.658 -13.565 Z m -42.634 -46.325 c 0.922 0 3.69 0.276 10.796 0.276 c 6.737 0 12.089 -0.184 18.641 -0.184 c 8.028 0 19.102 2.86 19.102 14.857 c 0 5.906 -4.153 10.613 -9.597 12.92 c -0.276 0.092 -0.276 0.276 0 0.368 c 7.751 1.939 14.581 6.737 14.581 15.78 c 0 8.86 -5.537 14.489 -13.566 17.996 c -4.891 2.122 -10.981 2.86 -17.164 2.86 c -4.707 0 -17.349 -0.553 -24.362 -0.368 c -0.738 -0.278 0.646 -3.6 1.291 -4.153 c 1.662 -0.093 2.953 -0.185 4.707 -0.739 c 2.492 -0.645 2.768 -1.384 3.137 -5.167 c 0.185 -3.23 0.185 -14.674 0.185 -22.794 c 0 -11.166 0.093 -18.733 0 -22.424 c -0.092 -2.86 -1.107 -3.784 -3.137 -4.338 c -1.57 -0.276 -4.153 -0.646 -6.276 -0.922 c -0.462 -0.462 1.107 -3.6 1.662 -3.968 Z m -53.248 57.399 c 2.216 1.752 6.553 2.49 10.429 2.49 c 4.983 0 9.966 -0.921 14.765 -5.26 c 4.891 -4.428 8.305 -11.257 8.305 -22.146 c 0 -10.429 -3.968 -18.919 -12.089 -23.901 c -4.614 -2.862 -10.52 -4.06 -17.349 -4.06 c -2.03 0 -3.968 0.092 -5.167 0.645 c -0.278 0.185 -0.923 1.015 -0.923 1.476 c -0.185 1.846 -0.185 16.057 -0.185 24.363 c 0 8.582 0 20.579 0.185 21.963 c 0 1.385 0.645 3.507 2.03 4.43 Z m -20.948 -57.4 c 1.754 0 8.49 0.277 11.72 0.277 c 5.815 0 9.967 -0.276 20.948 -0.276 c 9.228 0 16.98 2.491 22.517 7.197 c 6.736 5.814 10.244 13.843 10.244 23.624 c 0 13.935 -6.368 21.964 -12.736 26.578 c -6.366 4.706 -14.672 7.474 -26.484 7.474 c -6.275 0 -17.072 -0.184 -26.024 -0.277 h -0.092 c -0.461 -0.83 0.738 -4.06 1.476 -4.152 c 2.4 -0.277 3.046 -0.37 4.246 -0.83 c 1.937 -0.739 2.307 -1.754 2.584 -5.168 c 0.276 -6.368 0.184 -14.027 0.184 -22.702 c 0 -6.182 0.092 -18.272 -0.093 -22.148 c -0.276 -3.229 -1.66 -4.06 -4.429 -4.614 c -1.384 -0.276 -3.23 -0.646 -5.813 -0.922 c -0.37 -0.647 1.291 -3.507 1.752 -4.06 Z" /><path fill="#442d22" d="M 272.033 116.385 c -2.307 -0.277 -3.968 -0.645 -5.998 -1.568 c -0.277 -0.185 -0.739 -1.107 -0.739 -1.477 c -0.184 -3.23 -0.184 -12.458 -0.184 -18.64 c 0 -4.984 -0.83 -9.321 -2.953 -12.366 c -2.492 -3.508 -6.09 -5.537 -10.705 -5.537 c -4.06 0 -9.505 2.768 -14.027 6.644 c -0.092 0.092 -0.83 0.739 -0.738 -0.277 c 0 -1.015 0.185 -3.045 0.277 -4.43 c 0.093 -1.292 -0.646 -1.937 -0.646 -1.937 c -2.953 1.476 -11.258 3.414 -14.304 3.69 c -2.214 0.463 -2.768 2.585 -0.46 3.323 h 0.092 c 2.49 0.738 4.152 1.569 5.443 2.4 c 0.923 0.738 0.831 1.753 0.831 2.584 c 0.092 6.92 0.092 17.533 -0.184 23.347 c -0.092 2.307 -0.738 3.137 -2.4 3.506 l 0.185 -0.092 c -1.292 0.277 -2.307 0.553 -3.876 0.738 c -0.554 0.554 -0.554 3.507 0 4.153 c 1.015 0 6.367 -0.277 10.798 -0.277 c 6.09 0 9.228 0.277 10.796 0.277 c 0.646 -0.738 0.831 -3.507 0.462 -4.153 c -1.754 -0.092 -3.046 -0.276 -4.245 -0.646 c -1.661 -0.37 -2.123 -1.199 -2.216 -3.137 c -0.183 -4.892 -0.183 -15.227 -0.183 -22.24 c 0 -1.938 0.553 -2.861 1.106 -3.415 c 2.123 -1.845 5.538 -3.137 8.583 -3.137 c 2.953 0 4.89 0.923 6.367 2.123 c 2.03 1.66 2.676 4.06 2.953 5.813 c 0.461 3.968 0.277 11.812 0.277 18.641 c 0 3.691 -0.277 4.614 -1.66 5.075 c -0.647 0.277 -2.308 0.647 -4.246 0.83 c -0.646 0.647 -0.461 3.508 0 4.154 c 2.676 0 5.814 -0.277 10.428 -0.277 c 5.721 0 9.413 0.277 10.89 0.277 c 0.46 -0.554 0.645 -3.23 0.276 -3.969 Z m 25.562 -35.25 c -4.89 0 -7.936 3.783 -7.936 9.688 c 0 5.999 2.676 12.92 10.243 12.92 c 1.292 0 3.692 -0.554 4.798 -1.846 c 1.754 -1.66 2.954 -4.983 2.954 -8.49 c 0 -7.659 -3.784 -12.273 -10.059 -12.273 Z m -0.646 40.787 c -1.845 0 -3.138 0.554 -3.968 1.016 c -3.876 2.49 -5.629 4.89 -5.629 7.752 c 0 2.675 1.015 4.797 3.23 6.643 c 2.676 2.307 6.367 3.415 11.073 3.415 c 9.413 0 13.566 -5.076 13.566 -10.058 c 0 -3.508 -1.754 -5.815 -5.352 -7.106 c -2.584 -1.108 -7.29 -1.662 -12.92 -1.662 Z m 0.646 23.994 c -5.629 0 -9.69 -1.2 -13.196 -3.876 c -3.415 -2.584 -4.891 -6.46 -4.891 -9.136 c 0 -0.738 0.185 -2.769 1.846 -4.614 c 1.014 -1.108 3.23 -3.23 8.49 -6.829 c 0.184 -0.092 0.276 -0.184 0.276 -0.37 c 0 -0.184 -0.185 -0.369 -0.369 -0.46 c -4.337 -1.661 -5.629 -4.338 -5.999 -5.814 v -0.185 c -0.091 -0.554 -0.276 -1.107 0.555 -1.661 c 0.646 -0.461 1.569 -1.015 2.583 -1.66 c 1.569 -0.924 3.23 -1.939 4.245 -2.77 c 0.185 -0.184 0.185 -0.368 0.185 -0.553 c 0 -0.185 -0.185 -0.37 -0.37 -0.461 c -6.458 -2.123 -9.688 -6.922 -9.688 -14.12 c 0 -4.706 2.122 -8.951 5.905 -11.627 c 2.584 -2.03 9.044 -4.522 13.289 -4.522 h 0.277 c 4.337 0.092 6.736 1.015 10.15 2.215 c 1.846 0.646 3.6 0.922 6 0.922 c 3.598 0 5.167 -1.107 6.458 -2.398 c 0.093 0.184 0.278 0.646 0.37 1.845 c 0.092 1.2 -0.277 2.953 -1.2 4.245 c -0.738 1.015 -2.399 1.754 -4.06 1.754 h -0.462 c -1.661 -0.185 -2.4 -0.37 -2.4 -0.37 l -0.368 0.185 c -0.092 0.185 0 0.369 0.092 0.646 l 0.093 0.185 c 0.184 0.83 0.553 3.321 0.553 3.968 c 0 7.567 -3.045 10.888 -6.275 13.38 c -3.138 2.307 -6.736 3.783 -10.797 4.153 c -0.092 0 -0.46 0 -1.292 0.092 c -0.461 0 -1.107 0.093 -1.2 0.093 h -0.092 c -0.738 0.184 -2.583 1.107 -2.583 2.675 c 0 1.384 0.83 3.046 4.798 3.323 c 0.83 0.092 1.66 0.092 2.584 0.185 c 5.26 0.368 11.812 0.83 14.857 1.845 c 4.245 1.568 6.921 5.352 6.921 9.874 c 0 6.83 -4.89 13.197 -13.011 17.164 c -3.968 1.754 -7.937 2.677 -12.274 2.677 Z m 52.6 -64.32 c -1.937 0 -3.691 0.46 -4.983 1.383 c -3.598 2.215 -5.444 6.645 -5.444 13.104 c 0 12.09 6.09 20.58 14.765 20.58 c 2.584 0 4.614 -0.739 6.367 -2.215 c 2.676 -2.216 4.061 -6.645 4.061 -12.828 c 0 -11.996 -5.999 -20.025 -14.765 -20.025 Z m 1.662 39.496 c -15.688 0 -21.317 -11.535 -21.317 -22.332 c 0 -7.567 3.045 -13.381 9.135 -17.534 c 4.338 -2.676 9.506 -4.152 14.12 -4.152 c 11.996 0 20.394 8.582 20.394 20.948 c 0 8.397 -3.322 15.041 -9.69 19.102 c -3.045 2.03 -8.305 3.968 -12.643 3.968 h 0.001 Z M 187.411 81.595 c -1.938 0 -3.691 0.461 -4.984 1.384 c -3.598 2.215 -5.444 6.645 -5.444 13.104 c 0 12.09 6.09 20.58 14.765 20.58 c 2.584 0 4.614 -0.739 6.368 -2.215 c 2.675 -2.216 4.06 -6.645 4.06 -12.828 c 0 -11.996 -5.906 -20.025 -14.765 -20.025 Z m 1.661 39.497 c -15.688 0 -21.317 -11.535 -21.317 -22.332 c 0 -7.567 3.045 -13.381 9.135 -17.534 c 4.338 -2.676 9.506 -4.152 14.12 -4.152 c 11.997 0 20.394 8.582 20.394 20.948 c 0 8.397 -3.322 15.041 -9.69 19.102 c -2.953 2.03 -8.213 3.968 -12.642 3.968 Z m -105.478 -0.923 c -0.185 -0.276 -0.37 -1.107 -0.277 -2.122 c 0 -0.739 0.185 -1.2 0.277 -1.384 c 1.938 -0.278 2.953 -0.555 4.06 -0.831 c 1.846 -0.462 2.584 -1.476 2.676 -3.783 c 0.278 -5.537 0.278 -16.058 0.185 -23.348 v -0.185 c 0 -0.83 0 -1.846 -1.015 -2.584 c -1.477 -0.922 -3.23 -1.752 -5.537 -2.4 c -0.83 -0.275 -1.384 -0.737 -1.292 -1.29 c 0 -0.554 0.554 -1.2 1.754 -1.385 c 3.045 -0.277 10.98 -2.214 14.118 -3.599 c 0.185 0.184 0.462 0.739 0.462 1.477 l -0.092 1.014 c -0.093 1.016 -0.185 2.216 -0.185 3.415 c 0 0.369 0.37 0.646 0.738 0.646 c 0.185 0 0.37 -0.092 0.554 -0.185 c 5.906 -4.614 11.258 -6.275 14.026 -6.275 c 4.523 0 8.03 2.123 10.706 6.552 c 0.184 0.278 0.369 0.37 0.646 0.37 c 0.184 0 0.46 -0.092 0.553 -0.277 c 5.445 -4.153 10.89 -6.645 14.488 -6.645 c 8.582 0 13.658 6.368 13.658 17.165 c 0 3.045 0 7.013 -0.092 10.613 c 0 3.229 -0.092 6.182 -0.092 8.305 c 0 0.46 0.645 1.937 1.66 2.214 c 1.292 0.646 3.046 0.923 5.353 1.292 h 0.092 c 0.185 0.646 -0.184 3.045 -0.553 3.507 c -0.554 0 -1.385 0 -2.307 -0.092 a 136.208 136.208 0 0 0 -7.014 -0.185 c -5.721 0 -8.674 0.092 -11.536 0.277 c -0.183 -0.738 -0.276 -2.953 0 -3.507 c 1.662 -0.276 2.492 -0.554 3.508 -0.83 c 1.846 -0.554 2.307 -1.385 2.4 -3.784 c 0 -1.753 0.368 -16.703 -0.186 -20.302 c -0.553 -3.691 -3.322 -8.028 -9.413 -8.028 c -2.307 0 -5.905 0.923 -9.412 3.598 c -0.184 0.185 -0.37 0.646 -0.37 0.923 v 0.093 c 0.37 1.937 0.37 4.153 0.37 7.567 v 5.998 c 0 4.153 -0.093 8.029 0 10.981 c 0 2.031 1.2 2.492 2.215 2.862 c 0.554 0.091 0.922 0.184 1.384 0.276 c 0.83 0.185 1.661 0.37 2.953 0.646 c 0.185 0.37 0.185 1.569 -0.092 2.584 c -0.093 0.554 -0.278 0.83 -0.37 0.923 c -3.137 -0.092 -6.367 -0.185 -11.073 -0.185 c -1.384 0 -3.784 0.093 -5.814 0.093 c -1.662 0 -3.23 0.092 -4.152 0.092 c -0.093 -0.185 -0.278 -0.83 -0.278 -1.846 c 0 -0.83 0.185 -1.476 0.37 -1.661 c 0.461 -0.092 0.83 -0.184 1.292 -0.184 c 1.106 -0.185 2.03 -0.37 2.952 -0.554 c 1.57 -0.461 2.123 -1.292 2.215 -3.322 c 0.277 -4.614 0.554 -17.81 -0.092 -21.133 c -1.107 -5.352 -4.152 -8.028 -9.044 -8.028 c -2.86 0 -6.46 1.384 -9.412 3.6 c -0.462 0.368 -0.831 1.29 -0.831 2.121 v 5.445 c 0 6.644 0 14.95 0.092 18.549 c 0.093 1.106 0.461 2.399 2.584 2.86 c 0.462 0.092 1.2 0.277 2.123 0.37 l 1.66 0.276 c 0.186 0.554 0.093 2.769 -0.276 3.507 c -0.923 0 -2.03 -0.092 -3.323 -0.092 c -1.937 -0.093 -4.429 -0.185 -7.197 -0.185 c -3.23 0 -5.537 0.092 -7.383 0.185 c -1.292 -0.185 -2.307 -0.185 -3.414 -0.185 Z" /><path fill="#fff" d="M 35.053 142.317 l -3.783 -1.293 s 0.462 -19.286 -6.46 -20.67 c -4.613 -5.353 0.74 -227.013 17.35 -0.739 c 0 0 -5.722 2.86 -6.737 7.752 c -1.108 4.799 -0.37 14.95 -0.37 14.95 Z" /><path fill="#a6a385" d="M 35.053 142.317 l -3.783 -1.293 s 0.462 -19.286 -6.46 -20.67 c -4.613 -5.353 0.74 -227.013 17.35 -0.739 c 0 0 -5.722 2.86 -6.737 7.752 c -1.108 4.799 -0.37 14.95 -0.37 14.95 Z" /><path fill="#fff" d="M 37.084 123.676 s 33.13 -21.779 25.377 -67.09 c -7.474 -32.943 -25.1 -43.74 -27.038 -47.893 C 33.301 5.74 31.27 0.573 31.27 0.573 l 1.385 91.634 c 0 0.093 -2.861 28.054 4.43 31.47" /><path fill="#499d4a" d="M 37.084 123.676 s 33.13 -21.779 25.377 -67.09 c -7.474 -32.943 -25.1 -43.74 -27.038 -47.893 C 33.301 5.74 31.27 0.573 31.27 0.573 l 1.385 91.634 c 0 0.093 -2.861 28.054 4.43 31.47" /><path fill="#fff" d="M 29.333 124.875 S -1.767 103.65 0.079 66.277 C 1.832 28.903 23.795 10.539 28.04 7.217 c 2.769 -2.953 2.861 -4.061 3.046 -7.014 c 1.938 4.153 1.569 62.106 1.845 68.934 c 0.83 26.3 -1.476 50.756 -3.598 55.738 Z" /><path fill="#58aa50" d="M 29.333 124.875 S -1.767 103.65 0.079 66.277 C 1.832 28.903 23.795 10.539 28.04 7.217 c 2.769 -2.953 2.861 -4.061 3.046 -7.014 c 1.938 4.153 1.569 62.106 1.845 68.934 c 0.83 26.3 -1.476 50.756 -3.598 55.738 Z" /></g></symbol>
<symbol xmlns="http://www.w3.org/2000/svg" id="si-logos-mysql" aria-labelledby="aujsi-logos-mysql-title" viewBox="0 0 256 252" preserveAspectRatio="xMidYMid meet"><title id="aujsi-logos-mysql-title">logo of mysql</title><path fill="#00546b" d="M 235.648 194.212 c -13.918 -0.347 -24.705 1.045 -33.752 4.872 c -2.61 1.043 -6.786 1.044 -7.134 4.35 c 1.392 1.392 1.566 3.654 2.784 5.567 c 2.09 3.479 5.741 8.177 9.047 10.614 c 3.653 2.783 7.308 5.566 11.134 8.002 c 6.786 4.176 14.442 6.611 21.053 10.787 c 3.829 2.434 7.654 5.568 11.482 8.177 c 1.914 1.39 3.131 3.654 5.568 4.523 v -0.521 c -1.219 -1.567 -1.567 -3.828 -2.784 -5.568 c -1.738 -1.74 -3.48 -3.306 -5.22 -5.046 c -5.045 -6.784 -11.308 -12.7 -18.093 -17.571 c -5.567 -3.828 -17.747 -9.047 -20.008 -15.485 c 0 0 -0.175 -0.173 -0.348 -0.347 c 3.827 -0.348 8.35 -1.74 12.005 -2.784 c 5.915 -1.567 11.308 -1.218 17.398 -2.784 c 2.783 -0.696 5.567 -1.566 8.35 -2.436 v -1.565 c -3.13 -3.132 -5.392 -7.307 -8.698 -10.265 c -8.873 -7.657 -18.617 -15.137 -28.707 -21.4 c -5.394 -3.48 -12.354 -5.742 -18.095 -8.699 c -2.086 -1.045 -5.567 -1.566 -6.784 -3.306 c -3.133 -3.827 -4.873 -8.872 -7.134 -13.396 c -5.044 -9.57 -9.917 -20.182 -14.267 -30.272 c -3.13 -6.786 -5.044 -13.572 -8.872 -19.834 c -17.92 -29.577 -37.406 -47.497 -67.33 -65.07 c -6.438 -3.653 -14.093 -5.219 -22.27 -7.132 c -4.348 -0.175 -8.699 -0.522 -13.048 -0.697 c -2.784 -1.218 -5.568 -4.523 -8.004 -6.089 C 34.006 4.573 8.429 -8.996 1.122 8.924 c -4.698 11.308 6.96 22.442 10.96 28.185 c 2.96 4.001 6.786 8.524 8.874 13.048 c 1.218 2.956 1.565 6.09 2.783 9.221 c 2.785 7.653 5.393 16.18 9.048 23.314 c 1.914 3.653 4.001 7.48 6.437 10.786 c 1.392 1.913 3.827 2.784 4.35 5.915 c -2.435 3.48 -2.61 8.7 -4.003 13.049 c -6.263 19.66 -3.826 44.017 5.046 58.457 c 2.783 4.348 9.395 13.92 18.268 10.265 c 7.83 -3.131 6.09 -13.048 8.35 -21.747 c 0.524 -2.09 0.176 -3.48 1.219 -4.872 v 0.349 c 2.436 4.87 4.871 9.569 7.133 14.44 c 5.394 8.524 14.788 17.398 22.617 23.314 c 4.177 3.13 7.482 8.524 12.702 10.438 v -0.523 h -0.349 c -1.044 -1.566 -2.61 -2.261 -4.001 -3.48 c -3.131 -3.13 -6.612 -6.958 -9.047 -10.438 c -7.306 -9.744 -13.745 -20.53 -19.486 -31.665 c -2.783 -5.392 -5.22 -11.308 -7.481 -16.701 c -1.045 -2.09 -1.045 -5.22 -2.784 -6.263 c -2.61 3.827 -6.437 7.133 -8.351 11.83 c -3.304 7.481 -3.653 16.702 -4.871 26.27 c -0.696 0.176 -0.349 0 -0.697 0.35 c -5.566 -1.394 -7.48 -7.134 -9.569 -12.006 c -5.22 -12.352 -6.09 -32.186 -1.565 -46.452 c 1.218 -3.654 6.438 -15.136 4.35 -18.616 c -1.044 -3.306 -4.525 -5.22 -6.438 -7.829 c -2.261 -3.306 -4.698 -7.48 -6.263 -11.135 c -4.176 -9.743 -6.264 -20.53 -10.787 -30.273 c -2.088 -4.524 -5.74 -9.22 -8.699 -13.396 c -3.305 -4.697 -6.959 -8.004 -9.569 -13.571 c -0.869 -1.913 -2.088 -5.045 -0.696 -7.133 c 0.348 -1.392 1.043 -1.913 2.436 -2.261 c 2.262 -1.915 8.7 0.521 10.96 1.565 c 6.438 2.608 11.831 5.046 17.225 8.699 c 2.435 1.74 5.045 5.046 8.176 5.916 h 3.654 c 5.568 1.217 11.83 0.348 17.05 1.913 c 9.222 2.957 17.572 7.307 25.054 12.005 c 22.792 14.44 41.58 34.97 54.282 59.501 c 2.088 4 2.957 7.656 4.871 11.83 c 3.655 8.526 8.178 17.225 11.83 25.576 c 3.654 8.176 7.133 16.528 12.353 23.314 c 2.61 3.652 13.048 5.567 17.746 7.481 c 3.48 1.565 8.874 2.958 12.005 4.871 c 5.915 3.652 11.83 7.83 17.398 11.83 c 2.784 2.088 11.482 6.438 12.005 9.917 Z" /><path fill="#00546b" d="M 58.186 43.022 c -2.957 0 -5.044 0.35 -7.132 0.871 v 0.348 h 0.348 c 1.393 2.784 3.827 4.698 5.566 7.133 c 1.393 2.783 2.61 5.568 4.003 8.352 c 0.173 -0.175 0.347 -0.348 0.347 -0.348 c 2.437 -1.741 3.654 -4.524 3.654 -8.7 c -1.044 -1.217 -1.218 -2.435 -2.088 -3.653 c -1.043 -1.741 -3.306 -2.61 -4.698 -4.003 Z" /></symbol>
<symbol xmlns="http://www.w3.org/2000/svg" id="si-logos-nodejs" aria-labelledby="avasi-logos-nodejs-title" viewBox="0 0 512 314" preserveAspectRatio="xMidYMid meet"><title id="avasi-logos-nodejs-title">logo of nodejs</title><defs><linearGradient id="avab" x1="68.188%" y1="17.487%" x2="27.823%" y2="89.755%"><stop stop-color="rgb(65, 135, 63)" offset="0%" /><stop stop-color="rgb(65, 139, 61)" offset="32.88%" /><stop stop-color="rgb(65, 150, 55)" offset="63.52%" /><stop stop-color="rgb(63, 169, 45)" offset="93.19%" /><stop stop-color="rgb(63, 174, 42)" offset="100%" /></linearGradient><path id="avaa" d="M 57.903 1.85 a 5.957 5.957 0 0 0 -5.894 0 L 3.352 29.933 c -1.85 1.04 -2.89 3.005 -2.89 5.085 v 56.286 c 0 2.08 1.156 4.045 2.89 5.085 l 48.657 28.085 a 5.957 5.957 0 0 0 5.894 0 l 48.658 -28.085 c 1.849 -1.04 2.89 -3.005 2.89 -5.085 V 35.019 c 0 -2.08 -1.157 -4.045 -2.89 -5.085 L 57.903 1.85 Z" /><linearGradient id="avad" x1="43.277%" y1="55.169%" x2="159.245%" y2="-18.306%"><stop stop-color="rgb(65, 135, 63)" offset="13.76%" /><stop stop-color="rgb(84, 160, 68)" offset="40.32%" /><stop stop-color="rgb(102, 184, 72)" offset="71.36%" /><stop stop-color="rgb(108, 192, 74)" offset="90.81%" /></linearGradient><linearGradient id="avae" x1="-4413.77%" y1="13.43%" x2="5327.93%" y2="13.43%"><stop stop-color="rgb(108, 192, 74)" offset="9.192%" /><stop stop-color="rgb(102, 184, 72)" offset="28.64%" /><stop stop-color="rgb(84, 160, 68)" offset="59.68%" /><stop stop-color="rgb(65, 135, 63)" offset="86.24%" /></linearGradient><linearGradient id="avaf" x1="-4.389%" y1="49.997%" x2="101.499%" y2="49.997%"><stop stop-color="rgb(108, 192, 74)" offset="9.192%" /><stop stop-color="rgb(102, 184, 72)" offset="28.64%" /><stop stop-color="rgb(84, 160, 68)" offset="59.68%" /><stop stop-color="rgb(65, 135, 63)" offset="86.24%" /></linearGradient><linearGradient id="avag" x1="-9713.77%" y1="36.21%" x2="27.93%" y2="36.21%"><stop stop-color="rgb(108, 192, 74)" offset="9.192%" /><stop stop-color="rgb(102, 184, 72)" offset="28.64%" /><stop stop-color="rgb(84, 160, 68)" offset="59.68%" /><stop stop-color="rgb(65, 135, 63)" offset="86.24%" /></linearGradient><linearGradient id="avah" x1="-103.861%" y1="50.275%" x2="100.797%" y2="50.275%"><stop stop-color="rgb(108, 192, 74)" offset="9.192%" /><stop stop-color="rgb(102, 184, 72)" offset="28.64%" /><stop stop-color="rgb(84, 160, 68)" offset="59.68%" /><stop stop-color="rgb(65, 135, 63)" offset="86.24%" /></linearGradient><linearGradient id="avai" x1="130.613%" y1="-211.069%" x2="4.393%" y2="201.605%"><stop stop-color="rgb(65, 135, 63)" offset="0%" /><stop stop-color="rgb(65, 139, 61)" offset="32.88%" /><stop stop-color="rgb(65, 150, 55)" offset="63.52%" /><stop stop-color="rgb(63, 169, 45)" offset="93.19%" /><stop stop-color="rgb(63, 174, 42)" offset="100%" /></linearGradient></defs><g fill="none"><path fill="#539e43" d="M 253.11 313.094 c -1.733 0 -3.351 -0.462 -4.854 -1.271 l -15.371 -9.13 c -2.312 -1.272 -1.156 -1.734 -0.462 -1.965 c 3.12 -1.04 3.698 -1.272 6.934 -3.12 c 0.347 -0.232 0.81 -0.116 1.156 0.115 l 11.789 7.05 c 0.462 0.231 1.04 0.231 1.386 0 l 46.115 -26.698 c 0.462 -0.231 0.694 -0.694 0.694 -1.271 v -53.28 c 0 -0.579 -0.232 -1.04 -0.694 -1.272 l -46.115 -26.582 c -0.462 -0.232 -1.04 -0.232 -1.386 0 l -46.115 26.582 c -0.462 0.231 -0.694 0.809 -0.694 1.271 v 53.28 c 0 0.463 0.232 1.04 0.694 1.272 l 12.598 7.281 c 6.819 3.467 11.095 -0.578 11.095 -4.623 v -52.587 c 0 -0.693 0.578 -1.387 1.387 -1.387 h 5.894 c 0.694 0 1.387 0.578 1.387 1.387 v 52.587 c 0 9.13 -4.97 14.447 -13.638 14.447 c -2.658 0 -4.738 0 -10.633 -2.89 l -12.135 -6.934 c -3.005 -1.733 -4.854 -4.97 -4.854 -8.437 v -53.28 c 0 -3.467 1.849 -6.704 4.854 -8.437 l 46.114 -26.698 c 2.89 -1.618 6.82 -1.618 9.709 0 l 46.114 26.698 c 3.005 1.733 4.855 4.97 4.855 8.437 v 53.28 c 0 3.467 -1.85 6.704 -4.855 8.437 l -46.114 26.698 c -1.503 0.694 -3.236 1.04 -4.854 1.04 Z m 14.216 -36.637 c -20.225 0 -24.386 -9.246 -24.386 -17.105 c 0 -0.694 0.578 -1.387 1.387 -1.387 h 6.01 c 0.693 0 1.271 0.462 1.271 1.156 c 0.925 6.125 3.583 9.13 15.834 9.13 c 9.708 0 13.87 -2.196 13.87 -7.397 c 0 -3.005 -1.157 -5.2 -16.297 -6.703 c -12.598 -1.272 -20.457 -4.045 -20.457 -14.1 c 0 -9.362 7.86 -14.91 21.035 -14.91 c 14.793 0 22.075 5.086 23 16.18 c 0 0.348 -0.116 0.694 -0.347 1.041 c -0.232 0.231 -0.578 0.462 -0.925 0.462 h -6.01 c -0.578 0 -1.156 -0.462 -1.271 -1.04 c -1.387 -6.356 -4.97 -8.437 -14.447 -8.437 c -10.633 0 -11.905 3.699 -11.905 6.472 c 0 3.352 1.503 4.392 15.834 6.241 c 14.216 1.85 20.92 4.508 20.92 14.447 c -0.116 10.171 -8.437 15.95 -23.116 15.95 Z" /><path fill="#333" d="M 110.028 104.712 c 0 -2.08 -1.156 -4.046 -3.005 -5.086 l -49.004 -28.2 c -0.81 -0.463 -1.734 -0.694 -2.658 -0.81 h -0.463 c -0.924 0 -1.849 0.347 -2.658 0.81 l -49.004 28.2 c -1.85 1.04 -3.005 3.005 -3.005 5.086 l 0.116 75.817 c 0 1.04 0.578 2.08 1.502 2.543 c 0.925 0.578 2.08 0.578 2.89 0 l 29.125 -16.643 c 1.849 -1.04 3.005 -3.005 3.005 -5.085 v -35.482 c 0 -2.08 1.155 -4.045 3.005 -5.085 l 12.366 -7.166 c 0.925 -0.578 1.965 -0.81 3.005 -0.81 c 1.04 0 2.08 0.232 2.89 0.81 l 12.366 7.166 c 1.85 1.04 3.005 3.004 3.005 5.085 v 35.482 c 0 2.08 1.156 4.045 3.005 5.085 l 29.125 16.643 c 0.925 0.578 2.08 0.578 3.005 0 c 0.925 -0.463 1.503 -1.503 1.503 -2.543 l -0.116 -75.817 Z M 345.571 0.347 c -0.924 -0.463 -2.08 -0.463 -2.89 0 c -0.924 0.578 -1.502 1.502 -1.502 2.542 v 75.125 c 0 0.693 -0.346 1.386 -1.04 1.849 c -0.693 0.346 -1.387 0.346 -2.08 0 l -12.251 -7.05 a 5.957 5.957 0 0 0 -5.895 0 l -49.004 28.316 c -1.849 1.04 -3.005 3.005 -3.005 5.085 v 56.516 c 0 2.08 1.156 4.046 3.005 5.086 l 49.004 28.316 a 5.957 5.957 0 0 0 5.895 0 l 49.004 -28.316 c 1.849 -1.04 3.005 -3.005 3.005 -5.086 V 21.844 c 0 -2.196 -1.156 -4.16 -3.005 -5.201 L 345.572 0.347 Z m -4.507 143.776 c 0 0.578 -0.231 1.04 -0.694 1.271 l -16.758 9.708 a 1.714 1.714 0 0 1 -1.503 0 l -16.758 -9.708 c -0.463 -0.231 -0.694 -0.809 -0.694 -1.271 v -19.417 c 0 -0.578 0.231 -1.04 0.694 -1.271 l 16.758 -9.709 a 1.714 1.714 0 0 1 1.503 0 l 16.758 9.709 c 0.463 0.23 0.694 0.809 0.694 1.271 v 19.417 Z" /><g transform="translate(401.047 70.501)"><path fill="#333" d="M 107.6 53.743 c 1.85 -1.04 2.89 -3.005 2.89 -5.086 V 34.904 c 0 -2.08 -1.155 -4.045 -2.89 -5.085 l -48.656 -28.2 a 5.957 5.957 0 0 0 -5.895 0 L 4.045 29.933 c -1.85 1.04 -3.005 3.005 -3.005 5.085 v 56.517 c 0 2.08 1.156 4.045 3.005 5.085 l 48.657 27.738 c 1.85 1.04 4.046 1.04 5.78 0 l 29.471 -16.411 c 0.925 -0.463 1.503 -1.503 1.503 -2.543 c 0 -1.04 -0.578 -2.08 -1.503 -2.543 L 38.718 74.546 c -0.925 -0.578 -1.503 -1.502 -1.503 -2.542 V 54.32 c 0 -1.04 0.578 -2.08 1.503 -2.543 l 15.371 -8.784 a 2.821 2.821 0 0 1 3.005 0 l 15.372 8.784 c 0.925 0.578 1.502 1.502 1.502 2.543 V 68.19 c 0 1.04 0.578 2.08 1.503 2.542 c 0.924 0.578 2.08 0.578 3.005 0 l 29.125 -16.99 Z" /><path fill="#539e43" d="M 55.245 51.084 a 1.05 1.05 0 0 1 1.156 0 l 9.362 5.432 c 0.346 0.232 0.577 0.578 0.577 1.04 v 10.865 c 0 0.462 -0.23 0.809 -0.577 1.04 L 56.4 74.893 a 1.05 1.05 0 0 1 -1.156 0 l -9.361 -5.432 c -0.347 -0.231 -0.578 -0.578 -0.578 -1.04 V 57.557 c 0 -0.463 0.23 -0.81 0.578 -1.04 l 9.361 -5.433 Z" /></g><g transform="translate(134.068 70.501)"><mask id="avac" fill="#fff"><use xmlns:xlink="http://www.w3.org/1999/xlink" xlink:href="#avaa" /></mask><use fill="url(#avab)" xmlns:xlink="http://www.w3.org/1999/xlink" xlink:href="#avaa" /><g mask="url(&quot;#avac&quot;)"><path d="M 51.893 1.85 L 3.121 29.933 C 1.27 30.974 0 32.94 0 35.02 v 56.286 c 0 1.387 0.578 2.658 1.502 3.698 L 56.285 1.156 c -1.387 -0.231 -3.005 -0.116 -4.392 0.693 Z M 56.632 125.053 c 0.462 -0.116 0.925 -0.347 1.387 -0.578 l 48.773 -28.085 c 1.85 -1.04 3.005 -3.005 3.005 -5.085 V 35.019 c 0 -1.502 -0.694 -3.005 -1.734 -4.045 l -51.43 94.079 Z" /><path fill="url(#avad)" d="M 106.676 29.934 L 57.788 1.85 a 8.025 8.025 0 0 0 -1.503 -0.578 L 1.502 95.12 a 6.082 6.082 0 0 0 1.619 1.387 l 48.888 28.085 c 1.387 0.809 3.005 1.04 4.507 0.577 l 51.432 -94.078 c -0.347 -0.462 -0.81 -0.81 -1.272 -1.156 Z" /></g><g mask="url(&quot;#avac&quot;)" transform="translate(0 -9.246)"><path d="M 109.797 100.55 V 44.266 c 0 -2.08 -1.271 -4.045 -3.12 -5.085 l -48.89 -28.085 a 5.106 5.106 0 0 0 -1.848 -0.693 l 53.511 91.42 c 0.231 -0.347 0.347 -0.809 0.347 -1.271 Z M 3.12 39.18 C 1.272 40.22 0 42.185 0 44.265 v 56.286 c 0 2.08 1.387 4.045 3.12 5.085 l 48.889 28.085 c 1.156 0.693 2.427 0.925 3.814 0.693 L 3.467 39.064 l -0.346 0.116 Z" /><path fill="url(#avae)" fill-rule="evenodd" d="M 50.391 0.809 l -0.693 0.347 h 0.924 l -0.231 -0.347 Z" /><path fill="url(#avaf)" fill-rule="evenodd" d="M 106.792 105.636 c 1.387 -0.809 2.427 -2.196 2.89 -3.698 L 56.053 10.402 c -1.387 -0.231 -2.89 -0.116 -4.16 0.693 L 3.351 39.065 l 52.355 95.465 a 8.057 8.057 0 0 0 2.196 -0.693 l 48.889 -28.2 Z" /><path fill="url(#avag)" fill-rule="evenodd" d="M 111.3 104.712 l -0.347 -0.578 v 0.809 l 0.346 -0.231 Z" /><path fill="url(#avah)" fill-rule="evenodd" d="M 106.792 105.636 l -48.773 28.085 a 6.973 6.973 0 0 1 -2.196 0.693 l 0.925 1.734 l 54.089 -31.32 v -0.694 l -1.387 -2.312 c -0.231 1.618 -1.271 3.005 -2.658 3.814 Z" /><path fill="url(#avai)" fill-rule="evenodd" d="M 106.792 105.636 l -48.773 28.085 a 6.973 6.973 0 0 1 -2.196 0.693 l 0.925 1.734 l 54.089 -31.32 v -0.694 l -1.387 -2.312 c -0.231 1.618 -1.271 3.005 -2.658 3.814 Z" /></g></g></g></symbol>
<symbol xmlns="http://www.w3.org/2000/svg" id="si-logos-php" aria-labelledby="awwsi-logos-php-title" viewBox="0 0 256 135" preserveAspectRatio="xMidYMid meet"><title id="awwsi-logos-php-title">logo of php</title><defs><radialGradient id="awwa" gradientUnits="userSpaceOnUse" gradientTransform="matrix(0.463, 0, 0, 0.463, 76.464, 81.918)" cx="0.837" cy="-125.811" r="363.057"><stop stop-color="rgb(255, 255, 255)" offset="0" /><stop stop-color="rgb(76, 107, 151)" offset="0.5" /><stop stop-color="rgb(35, 31, 32)" offset="1" /></radialGradient></defs><ellipse fill="url(#awwa)" cx="128" cy="67.3" rx="128" ry="67.3" /><ellipse fill="#6181b6" cx="128" cy="67.3" rx="123" ry="62.3" /><g fill="#fff"><path d="M 152.9 87.5 l 6.1 -31.4 c 1.4 -7.1 0.2 -12.4 -3.4 -15.7 c -3.5 -3.2 -9.5 -4.8 -18.3 -4.8 h -10.6 l 3 -15.6 c 0.1 -0.6 0 -1.2 -0.4 -1.7 s -0.9 -0.7 -1.5 -0.7 h -14.6 c -1 0 -1.8 0.7 -2 1.6 l -6.5 33.3 c -0.6 -3.8 -2 -7 -4.4 -9.6 c -4.3 -4.9 -11 -7.4 -20.1 -7.4 H 52.1 c -1 0 -1.8 0.7 -2 1.6 L 37 104.7 c -0.1 0.6 0 1.2 0.4 1.7 s 0.9 0.7 1.5 0.7 h 14.7 c 1 0 1.8 -0.7 2 -1.6 l 3.2 -16.3 h 10.9 c 5.7 0 10.6 -0.6 14.3 -1.8 c 3.9 -1.3 7.4 -3.4 10.5 -6.3 c 2.5 -2.3 4.6 -4.9 6.2 -7.7 l -2.6 13.5 c -0.1 0.6 0 1.2 0.4 1.7 s 0.9 0.7 1.5 0.7 h 14.6 c 1 0 1.8 -0.7 2 -1.6 l 7.2 -37 h 10 c 4.3 0 5.5 0.8 5.9 1.2 c 0.3 0.3 0.9 1.5 0.2 5.2 L 134.1 87 c -0.1 0.6 0 1.2 0.4 1.7 s 0.9 0.7 1.5 0.7 h 15 c 0.9 -0.3 1.7 -1 1.9 -1.9 Z m -67.6 -26 c -0.9 4.7 -2.6 8.1 -5.1 10 c -2.5 1.9 -6.6 2.9 -12 2.9 h -6.5 l 4.7 -24.2 h 8.4 c 6.2 0 8.7 1.3 9.7 2.4 c 1.3 1.6 1.6 4.7 0.8 8.9 Z M 215.3 42.9 c -4.3 -4.9 -11 -7.4 -20.1 -7.4 h -28.3 c -1 0 -1.8 0.7 -2 1.6 l -13.1 67.5 c -0.1 0.6 0 1.2 0.4 1.7 s 0.9 0.7 1.5 0.7 h 14.7 c 1 0 1.8 -0.7 2 -1.6 l 3.2 -16.3 h 10.9 c 5.7 0 10.6 -0.6 14.3 -1.8 c 3.9 -1.3 7.4 -3.4 10.5 -6.3 c 2.6 -2.4 4.8 -5.1 6.4 -8 c 1.6 -2.9 2.8 -6.1 3.5 -9.6 c 1.7 -8.7 0.4 -15.5 -3.9 -20.5 Z M 200 61.5 c -0.9 4.7 -2.6 8.1 -5.1 10 c -2.5 1.9 -6.6 2.9 -12 2.9 h -6.5 l 4.7 -24.2 h 8.4 c 6.2 0 8.7 1.3 9.7 2.4 c 1.4 1.6 1.7 4.7 0.8 8.9 Z" /></g><g fill="#000004"><path d="M 74.8 48.2 c 5.6 0 9.3 1 11.2 3.1 c 1.9 2.1 2.3 5.6 1.3 10.6 c -1 5.2 -3 9 -5.9 11.2 c -2.9 2.2 -7.3 3.3 -13.2 3.3 h -8.9 l 5.5 -28.2 h 10 Z M 39 105 h 14.7 l 3.5 -17.9 h 12.6 c 5.6 0 10.1 -0.6 13.7 -1.8 c 3.6 -1.2 6.8 -3.1 9.8 -5.9 c 2.5 -2.3 4.5 -4.8 6 -7.5 s 2.6 -5.7 3.2 -9 c 1.6 -8 0.4 -14.2 -3.5 -18.7 s -10.1 -6.7 -18.6 -6.7 H 52.1 L 39 105 Z M 113.3 19.6 h 14.6 l -3.5 17.9 h 13 c 8.2 0 13.8 1.4 16.9 4.3 c 3.1 2.9 4 7.5 2.8 13.9 L 151 87.1 h -14.8 l 5.8 -29.9 c 0.7 -3.4 0.4 -5.7 -0.7 -6.9 c -1.1 -1.2 -3.6 -1.9 -7.3 -1.9 h -11.7 l -7.5 38.7 h -14.6 l 13.1 -67.5 Z M 189.5 48.2 c 5.6 0 9.3 1 11.2 3.1 c 1.9 2.1 2.3 5.6 1.3 10.6 c -1 5.2 -3 9 -5.9 11.2 c -2.9 2.2 -7.3 3.3 -13.2 3.3 H 174 l 5.5 -28.2 h 10 Z M 153.7 105 h 14.7 l 3.5 -17.9 h 12.6 c 5.6 0 10.1 -0.6 13.7 -1.8 c 3.6 -1.2 6.8 -3.1 9.8 -5.9 c 2.5 -2.3 4.5 -4.8 6 -7.5 s 2.6 -5.7 3.2 -9 c 1.6 -8 0.4 -14.2 -3.5 -18.7 s -10.1 -6.7 -18.6 -6.7 h -28.3 L 153.7 105 Z" /></g></symbol>
  </defs>
</svg>
